<svg width="609" height="376" viewBox="0 0 609 376" fill="none" xmlns="http://www.w3.org/2000/svg">
<g clip-path="url(#clip0)">
<path d="M315.964 102.487C291.583 99.0347 268.474 89.5152 248.525 75.0828C218.737 53.5288 156.407 16.8483 96.9475 35.112C14.9303 60.3168 14.5602 133.227 35.9265 172.828C57.2929 212.43 208.789 328.403 405.185 309.95C580.936 293.435 615.183 104.425 521.449 70.2149C440.154 40.5568 412.415 116.135 315.964 102.487Z" fill="#F6EBD3"/>
<path d="M78.6593 21.581C82.4596 25.0336 82.7304 30.9021 79.2821 34.6973C75.8249 38.4924 69.9485 38.7629 66.1482 35.3193C62.3479 31.8667 62.0771 25.9981 65.5253 22.203C68.9826 18.4078 74.859 18.1284 78.6593 21.581Z" fill="#F6EBD3"/>
<path d="M57.0853 38.862C59.3781 40.9444 59.5406 44.4872 57.4554 46.7769C55.3702 49.0666 51.8227 49.2289 49.5299 47.1465C47.2371 45.0641 47.0746 41.5214 49.1598 39.2316C51.245 36.9419 54.7925 36.7797 57.0853 38.862Z" fill="#F6EBD3"/>
<path d="M363.499 85.5939C366.297 86.919 367.489 90.2634 366.153 93.058C364.826 95.8525 361.477 97.0424 358.679 95.7083C355.88 94.3831 354.689 91.0387 356.025 88.2442C357.361 85.4496 360.71 84.2597 363.499 85.5939Z" fill="#F6EBD3"/>
<path d="M531.695 279.985C532.859 284.808 529.889 289.667 525.06 290.83C520.231 291.993 515.365 289.027 514.201 284.204C513.036 279.381 516.006 274.522 520.836 273.359C525.656 272.197 530.521 275.162 531.695 279.985Z" fill="#F6EBD3"/>
<path d="M598.15 180.761C598.15 184.439 595.171 187.414 591.488 187.414C587.805 187.414 584.826 184.439 584.826 180.761C584.826 177.083 587.805 174.108 591.488 174.108C595.171 174.108 598.15 177.083 598.15 180.761Z" fill="#F6EBD3"/>
<path d="M593.095 12.8007H502.809V151.851H593.095V12.8007Z" fill="#DBBA8F"/>
<path d="M588.347 17.8669H507.557V146.803H588.347V17.8669Z" fill="#FFE4CA"/>
<g opacity="0.5">
<g opacity="0.5">
<path opacity="0.5" d="M561.483 17.8669L507.557 75.3532V60.5692L547.618 17.8669H561.483Z" fill="white"/>
</g>
</g>
<g opacity="0.5">
<g opacity="0.5">
<path opacity="0.5" d="M588.347 20.4722V40.4215L507.557 126.538V106.589L588.347 20.4722Z" fill="white"/>
</g>
</g>
<g opacity="0.5">
<g opacity="0.5">
<path opacity="0.5" d="M588.347 111.376V122.013L565.094 146.794H555.119L588.347 111.376Z" fill="white"/>
</g>
</g>
<g opacity="0.5">
<g opacity="0.5">
<path opacity="0.5" d="M588.347 67.4654V77.7691L523.589 146.794H513.921L588.347 67.4654Z" fill="white"/>
</g>
</g>
<path d="M588.347 75.9391H507.557V82.006H588.347V75.9391Z" fill="#DBBA8F"/>
<path d="M593.095 151.851H502.809V157.377H593.095V151.851Z" fill="#E8D3B3"/>
<path d="M507.359 12.8007H417.073V151.851H507.359V12.8007Z" fill="#DBBA8F"/>
<path d="M502.61 17.8669H421.821V146.803H502.61V17.8669Z" fill="#FFE4CA"/>
<g opacity="0.5">
<g opacity="0.5">
<path opacity="0.5" d="M475.756 17.8669L421.821 75.3532V60.5692L461.882 17.8669H475.756Z" fill="white"/>
</g>
</g>
<g opacity="0.5">
<g opacity="0.5">
<path opacity="0.5" d="M502.61 20.4722V40.4215L421.821 126.538V106.589L502.61 20.4722Z" fill="white"/>
</g>
</g>
<g opacity="0.5">
<g opacity="0.5">
<path opacity="0.5" d="M502.61 111.376V122.013L479.367 146.794H469.383L502.61 111.376Z" fill="white"/>
</g>
</g>
<g opacity="0.5">
<g opacity="0.5">
<path opacity="0.5" d="M502.611 67.4654V77.7691L437.862 146.794H428.194L502.611 67.4654Z" fill="white"/>
</g>
</g>
<path d="M502.61 75.9391H421.821V82.006H502.61V75.9391Z" fill="#DBBA8F"/>
<path d="M507.359 151.851H417.073V157.377H507.359V151.851Z" fill="#E8D3B3"/>
<path d="M182.855 94.1938H44.3756L41.3426 86.1527H186.313L182.855 94.1938Z" fill="#E8D3B3"/>
<path d="M186.313 76.5972H41.3426V86.1527H186.313V76.5972Z" fill="#DBBA8F"/>
<path d="M56.1104 86.1527L59.9919 94.2659H69.127L71.7267 86.1527H56.1104Z" fill="#C59F79"/>
<path d="M171.536 86.1527L167.663 94.2659H158.528L155.928 86.1527H171.536Z" fill="#C59F79"/>
<path d="M145.295 51.2751C145.015 51.2751 144.789 51.0498 144.789 50.7703V17.9301C144.789 17.6506 145.015 17.4252 145.295 17.4252C145.575 17.4252 145.8 17.6506 145.8 17.9301V50.7703C145.8 51.0498 145.575 51.2751 145.295 51.2751Z" fill="#00431F"/>
<path d="M159.332 50.0402L158.799 52.0053L158.7 52.384L158.221 54.1598L158.122 54.5385L153.356 72.1981L153.257 72.5767L152.778 74.3526L152.679 74.7312L152.047 77.066C147.479 77.6339 143.011 77.697 138.57 77.066L137.938 74.7312L137.839 74.3526L137.36 72.5767L137.261 72.1981L132.495 54.5385L132.396 54.1598L131.917 52.384L131.791 52.0053L131.258 50.0402H159.332Z" fill="#F4AD4B"/>
<path d="M158.799 52.0054L158.7 52.384H131.89L131.791 52.0054H158.799Z" fill="#D57635"/>
<path d="M158.221 54.1599L158.122 54.5385H132.477L132.369 54.1599H158.221Z" fill="#D57635"/>
<path d="M153.347 72.1981L153.247 72.5767H137.342L137.243 72.1981H153.347Z" fill="#D57635"/>
<path d="M152.769 74.3526L152.67 74.7312H137.929L137.83 74.3526H152.769Z" fill="#D57635"/>
<path d="M147.091 25.1057C146.486 25.2499 145.891 24.9975 145.566 24.5378C145.448 24.3845 145.367 24.2042 145.322 24.0059C145.295 23.9067 145.286 23.7986 145.286 23.6904C145.286 23.3478 145.403 23.0233 145.62 22.7619C147.543 20.4361 157.282 9.18585 161.85 13.8915C167.374 19.5707 152.417 23.8076 147.091 25.1057Z" fill="#006837"/>
<path d="M155.712 18.543L145.575 24.5378C145.457 24.3845 145.376 24.2042 145.331 24.0059L155.414 18.0472C155.558 17.9661 155.73 18.0112 155.82 18.1464C155.892 18.2906 155.847 18.4619 155.712 18.543Z" fill="#00431F"/>
<path d="M145.295 29.2525C145.295 29.3606 145.286 29.4598 145.259 29.568C145.214 29.7663 145.132 29.9466 145.015 30.0998C144.681 30.5596 144.094 30.812 143.49 30.6677C138.173 29.3787 123.215 25.1418 128.731 19.4536C133.289 14.7479 143.029 25.9982 144.961 28.3239C145.178 28.5854 145.295 28.9189 145.295 29.2525Z" fill="#006837"/>
<path d="M145.268 29.568C145.223 29.7663 145.141 29.9466 145.024 30.0998L134.887 24.1051C134.752 24.024 134.706 23.8437 134.788 23.7085C134.869 23.5732 135.049 23.5191 135.185 23.6093L145.268 29.568Z" fill="#00431F"/>
<path d="M146.405 17.8489C146.36 18.1825 146.207 18.498 145.963 18.7324C145.882 18.8045 145.8 18.8676 145.719 18.9217C145.548 19.0298 145.358 19.0929 145.159 19.12C144.6 19.2011 144.013 18.9487 143.697 18.4078C140.962 13.6752 133.723 -0.0631298 141.648 -2.74811e-05C148.202 0.0540603 146.766 14.8561 146.405 17.8489Z" fill="#006837"/>
<path d="M145.719 18.9217C145.548 19.0299 145.358 19.093 145.159 19.12L142.515 7.6534C142.479 7.50015 142.578 7.33788 142.731 7.30183C142.885 7.26577 143.047 7.36493 143.083 7.52719L145.719 18.9217Z" fill="#00431F"/>
<path d="M147.091 37.0501C146.486 37.1943 145.891 36.9419 145.566 36.4822C145.448 36.3289 145.367 36.1486 145.322 35.9503C145.295 35.8511 145.286 35.7429 145.286 35.6348C145.286 35.3012 145.403 34.9677 145.62 34.7063C147.543 32.3805 157.282 21.1302 161.85 25.8359C167.374 31.5241 152.417 35.761 147.091 37.0501Z" fill="#006837"/>
<path d="M155.712 30.4965L145.575 36.4822C145.457 36.3289 145.376 36.1486 145.331 35.9503L155.414 29.9916C155.558 29.9105 155.73 29.9556 155.82 30.0908C155.892 30.235 155.847 30.4153 155.712 30.4965Z" fill="#00431F"/>
<path d="M145.295 41.2058C145.295 41.314 145.286 41.4132 145.259 41.5214C145.214 41.7197 145.132 41.9 145.015 42.0622C144.681 42.522 144.094 42.7744 143.49 42.6302C138.173 41.3411 123.215 37.1042 128.731 31.416C133.289 26.7103 143.029 37.9606 144.961 40.2863C145.178 40.5388 145.295 40.8633 145.295 41.2058Z" fill="#006837"/>
<path d="M145.268 41.5123C145.223 41.7106 145.141 41.8909 145.024 42.0532L134.887 36.0585C134.752 35.9773 134.706 35.797 134.788 35.6528C134.869 35.5176 135.049 35.4725 135.185 35.5536L145.268 41.5123Z" fill="#00431F"/>
<path d="M147.091 48.3003C146.486 48.4445 145.891 48.1921 145.566 47.7324C145.448 47.5791 145.367 47.3989 145.322 47.2005C145.295 47.1014 145.286 46.9932 145.286 46.885C145.286 46.5425 145.403 46.2179 145.62 45.9565C147.543 43.6307 157.282 32.3805 161.85 37.0861C167.374 42.7743 152.417 47.0112 147.091 48.3003Z" fill="#006837"/>
<path d="M155.712 41.7467L145.575 47.7414C145.457 47.5881 145.376 47.4078 145.331 47.2095L155.414 41.2509C155.558 41.1697 155.73 41.2148 155.82 41.35C155.892 41.4852 155.847 41.6655 155.712 41.7467Z" fill="#00431F"/>
<path d="M84.5989 69.9535H85.4745V68.6464H52.2921C51.1908 68.6464 50.1979 69.0881 49.4757 69.8092C48.7536 70.5304 48.3113 71.522 48.3113 72.6218C48.3113 74.8214 50.0986 76.5973 52.2921 76.5973H85.4835V75.4614H84.6079V69.9535H84.5989Z" fill="#D26040"/>
<path d="M84.8246 69.9535V75.4704H54.3773C52.8878 75.4704 51.6873 74.2354 51.6873 72.712C51.6873 71.9457 51.9852 71.2606 52.4726 70.7558C52.9601 70.26 53.628 69.9445 54.3773 69.9445H84.8246V69.9535Z" fill="white"/>
<path d="M84.8246 71.3508V72.1981H55.1626C54.9279 72.1981 54.7383 72.0088 54.7383 71.7745C54.7383 71.5401 54.9279 71.3508 55.1626 71.3508H84.8246Z" fill="#DDDAC7"/>
<path d="M84.8246 73.4241V74.2715H55.1626C54.9279 74.2715 54.7383 74.0821 54.7383 73.8478C54.7383 73.6134 54.9279 73.4241 55.1626 73.4241H84.8246Z" fill="#DDDAC7"/>
<path d="M84.5989 62.3631H85.4745V61.056H52.2921C51.1908 61.056 50.1979 61.4977 49.4757 62.2189C48.7536 62.9401 48.3113 63.9317 48.3113 65.0315C48.3113 67.231 50.0986 69.0069 52.2921 69.0069H85.4835V67.8801H84.6079V62.3631H84.5989Z" fill="#4378AE"/>
<path d="M84.8246 62.3631V67.8801H54.3773C52.8878 67.8801 51.6873 66.6451 51.6873 65.1216C51.6873 64.3554 51.9852 63.6703 52.4726 63.1654C52.9601 62.6696 53.628 62.3541 54.3773 62.3541H84.8246V62.3631Z" fill="white"/>
<path d="M84.8246 63.7604V64.6078H55.1626C54.9279 64.6078 54.7383 64.4185 54.7383 64.1841C54.7383 63.9497 54.9279 63.7604 55.1626 63.7604H84.8246Z" fill="#DDDAC7"/>
<path d="M84.8246 65.8337V66.6811H55.1626C54.9279 66.6811 54.7383 66.4918 54.7383 66.2574C54.7383 66.023 54.9279 65.8337 55.1626 65.8337H84.8246Z" fill="#DDDAC7"/>
<path d="M122.972 69.9535H123.847V68.6464H90.6558C89.5546 68.6464 88.5616 69.0881 87.8395 69.8092C87.1173 70.5304 86.675 71.522 86.675 72.6218C86.675 74.8214 88.4623 76.5973 90.6558 76.5973H123.847V75.4614H122.972V69.9535Z" fill="#006837"/>
<path d="M123.197 69.9535V75.4704H92.741C91.2516 75.4704 90.0511 74.2354 90.0511 72.712C90.0511 71.9457 90.3489 71.2606 90.8364 70.7558C91.3238 70.26 91.9918 69.9445 92.741 69.9445H123.197V69.9535Z" fill="white"/>
<path d="M123.197 71.3508V72.1981H93.5354C93.3007 72.1981 93.1111 72.0088 93.1111 71.7745C93.1111 71.5401 93.3007 71.3508 93.5354 71.3508H123.197Z" fill="#DDDAC7"/>
<path d="M123.197 73.4241V74.2715H93.5354C93.3007 74.2715 93.1111 74.0821 93.1111 73.8478C93.1111 73.6134 93.3007 73.4241 93.5354 73.4241H123.197Z" fill="#DDDAC7"/>
<path d="M122.972 61.9936H123.847V60.6865H90.6558C89.5546 60.6865 88.5616 61.1282 87.8395 61.8493C87.1173 62.5705 86.675 63.5621 86.675 64.6619C86.675 66.8615 88.4623 68.6374 90.6558 68.6374H123.847V67.5015H122.972V61.9936Z" fill="#D26040"/>
<path d="M123.197 61.9936V67.5105H92.741C91.2516 67.5105 90.0511 66.2755 90.0511 64.752C90.0511 63.9858 90.3489 63.3007 90.8364 62.7959C91.3238 62.3001 91.9918 61.9846 92.741 61.9846H123.197V61.9936Z" fill="white"/>
<path d="M123.197 63.3909V64.2382H93.5354C93.3007 64.2382 93.1111 64.0489 93.1111 63.8146C93.1111 63.5802 93.3007 63.3909 93.5354 63.3909H123.197Z" fill="#DDDAC7"/>
<path d="M123.197 65.4642V66.3115H93.5354C93.3007 66.3115 93.1111 66.1222 93.1111 65.8879C93.1111 65.6535 93.3007 65.4642 93.5354 65.4642H123.197Z" fill="#DDDAC7"/>
<path d="M377.31 80.3923C390.83 80.3923 401.79 69.4467 401.79 55.9447C401.79 42.4426 390.83 31.497 377.31 31.497C363.79 31.497 352.829 42.4426 352.829 55.9447C352.829 69.4467 363.79 80.3923 377.31 80.3923Z" fill="#E8D3B3"/>
<path d="M377.31 77.2102C390.83 77.2102 401.79 66.2646 401.79 52.7625C401.79 39.2605 390.83 28.3149 377.31 28.3149C363.79 28.3149 352.829 39.2605 352.829 52.7625C352.829 66.2646 363.79 77.2102 377.31 77.2102Z" fill="#D26040"/>
<path d="M397.208 52.9873C397.327 42.0105 388.512 33.0159 377.521 32.8973C366.529 32.7788 357.522 41.5811 357.404 52.5579C357.285 63.5347 366.099 72.5293 377.091 72.6478C388.082 72.7664 397.089 63.9641 397.208 52.9873Z" fill="white"/>
<path d="M357.406 52.7626C357.406 53.2944 357.424 53.8173 357.469 54.3311C358.272 44.0995 366.866 36.0224 377.31 36.0224C387.754 36.0224 396.347 44.0995 397.151 54.3311C397.187 53.8173 397.214 53.2944 397.214 52.7626C397.214 41.8008 388.286 32.8853 377.31 32.8853C366.333 32.8853 357.406 41.8008 357.406 52.7626Z" fill="#FFDECB"/>
<path d="M375.938 53.7091C375.992 53.8533 376.109 53.9705 376.263 54.0155L391.951 58.7032C392.213 58.7843 392.493 58.631 392.574 58.3696C392.655 58.1082 392.502 57.8287 392.24 57.7476L376.931 53.1772L377.707 41.3951C377.725 41.1246 377.518 40.8812 377.247 40.8632C376.976 40.8452 376.732 41.0525 376.714 41.323L375.911 53.5017C375.902 53.5828 375.911 53.646 375.938 53.7091Z" fill="#291D2C"/>
<path d="M212.607 86.6846V24.4747C212.607 23.438 213.447 22.5997 214.485 22.5997H335.669C336.708 22.5997 337.547 23.438 337.547 24.4747V86.6846C337.547 87.7213 336.708 88.5597 335.669 88.5597H214.476C213.447 88.5597 212.607 87.7213 212.607 86.6846Z" fill="#E8D3B3"/>
<path d="M212.607 83.3312V21.1213C212.607 20.0846 213.447 19.2462 214.485 19.2462H335.669C336.708 19.2462 337.547 20.0846 337.547 21.1213V83.3312C337.547 84.3679 336.708 85.2062 335.669 85.2062H214.476C213.447 85.1972 212.607 84.3588 212.607 83.3312Z" fill="#212019"/>
<path d="M333.25 23.5281H216.886V80.9242H333.25V23.5281Z" fill="#E8D3B3"/>
<path d="M331.428 79.0886V25.3525L218.72 25.3525V79.0886L331.428 79.0886Z" fill="white"/>
<path d="M326.038 29.8204H224.117V74.6321H326.038V29.8204Z" fill="#F4AD4B"/>
<path d="M298.38 57.4953C298.38 66.9606 290.698 74.6321 281.22 74.6321C271.742 74.6321 264.06 66.9606 264.06 57.4953C264.06 48.0299 271.742 40.3585 281.22 40.3585C290.698 40.3585 298.38 48.0299 298.38 57.4953Z" fill="white"/>
<path d="M282.159 60.407C282.159 60.407 300.853 47.3628 326.029 47.1284V74.623H295.175L282.159 60.407Z" fill="#00431F"/>
<path d="M224.117 57.8649C224.117 57.8649 244.012 47.9938 264.376 52.2217C286.131 56.729 302.776 74.6321 302.776 74.6321H224.117V57.8649Z" fill="#006837"/>
<path d="M197.271 318.514C282.59 318.514 351.755 315.438 351.755 311.645C351.755 307.851 282.59 304.775 197.271 304.775C111.952 304.775 42.7869 307.851 42.7869 311.645C42.7869 315.438 111.952 318.514 197.271 318.514Z" fill="#E8D3B3"/>
<path d="M374.963 130.009L356.35 232.253C355.528 236.751 351.863 240.005 347.603 240.005H67.8181C63.5575 240.005 59.8926 236.76 59.0712 232.253L40.458 130.009C39.3838 124.086 43.5993 118.578 49.2049 118.578H366.216C371.831 118.578 376.046 124.086 374.963 130.009Z" fill="#DBBA8F"/>
<path d="M368.771 127.981H49.2771C48.7716 127.981 48.3654 127.575 48.3654 127.07C48.3654 126.565 48.7716 126.16 49.2771 126.16H368.771C369.276 126.16 369.682 126.565 369.682 127.07C369.673 127.575 369.267 127.981 368.771 127.981Z" fill="#E7CEA7"/>
<path d="M344.922 249.065H56.7964C54.8918 249.065 53.3392 247.524 53.3392 245.612V227.223C53.3392 225.321 54.8827 223.77 56.7964 223.77H344.922C346.827 223.77 348.379 225.312 348.379 227.223V245.612C348.379 247.515 346.827 249.065 344.922 249.065Z" fill="#C59F79"/>
<path d="M258.238 224.843C258.238 224.843 296.466 217.911 302.821 197.763C309.176 177.615 324.467 172.973 324.467 172.973L310.9 224.843H258.238Z" fill="#DBBA8F"/>
<path d="M144.898 224.843C144.898 224.843 106.669 217.911 100.314 197.763C93.9596 177.615 78.6683 172.973 78.6683 172.973L92.2355 224.843H144.898Z" fill="#DBBA8F"/>
<path d="M280.037 171.954C280.037 171.954 254.474 167.717 248.399 166.022C242.333 164.328 242.324 169.754 244.255 179.048C246.196 188.343 248.01 195.031 246.792 201.116C245.564 207.201 235.319 224.194 240.509 227.268C245.691 230.333 262.977 224.518 275.542 228.863C288.107 233.217 307.876 235.101 310.178 231.171C312.489 227.241 302.659 204.371 305.574 197.429C308.49 190.479 315.134 174.496 312.958 170.385C310.783 166.275 289.479 173.559 280.037 171.954Z" fill="#E7CEA7"/>
<path d="M278.422 200.485C278.422 202.234 277.004 203.649 275.253 203.649C273.502 203.649 272.085 202.234 272.085 200.485C272.085 198.736 273.502 197.321 275.253 197.321C277.004 197.321 278.422 198.736 278.422 200.485Z" fill="#DBBA8F"/>
<path d="M142.993 167.654C142.993 167.654 117.231 164.85 111.074 163.498C104.918 162.146 105.216 167.564 107.671 176.741C110.127 185.909 112.32 192.489 111.435 198.628C110.551 204.767 101.28 222.31 106.624 225.086C111.968 227.863 128.902 221.084 141.693 224.726C154.484 228.367 174.325 229.143 176.401 225.095C178.486 221.048 167.392 198.763 169.92 191.66C172.447 184.556 178.179 168.231 175.778 164.246C173.368 160.271 152.507 168.736 142.993 167.654Z" fill="#E7CEA7"/>
<path d="M142.975 196.23C143.074 197.97 141.738 199.467 139.987 199.566C138.245 199.665 136.747 198.331 136.647 196.582C136.548 194.842 137.884 193.346 139.635 193.246C141.386 193.156 142.876 194.491 142.975 196.23Z" fill="#DBBA8F"/>
<path d="M343.532 274.36H58.1865C55.5056 274.36 53.3392 272.197 53.3392 269.519V253.906C53.3392 251.229 55.5056 249.065 58.1865 249.065H343.532C346.213 249.065 348.379 251.229 348.379 253.906V269.519C348.379 272.188 346.204 274.36 343.532 274.36Z" fill="#E7CEA7"/>
<path d="M341.365 269.663H60.3439C59.8384 269.663 59.4322 269.258 59.4322 268.753C59.4322 268.248 59.8384 267.843 60.3439 267.843H341.365C341.871 267.843 342.277 268.248 342.277 268.753C342.277 269.258 341.871 269.663 341.365 269.663Z" fill="#DBBA8F"/>
<path d="M113.828 274.351C113.828 274.351 110.831 283.934 102.887 283.934H87.7763C87.1444 283.934 86.7924 283.934 86.7924 283.934H71.6726C63.738 283.934 60.7321 274.351 60.7321 274.351H113.828Z" fill="#DBBA8F"/>
<path d="M83.2629 311.645L97.3086 283.934H74.2903L66.2113 311.645H83.2629Z" fill="#C59F79"/>
<path d="M286.356 274.351C286.356 274.351 289.353 283.934 297.297 283.934H312.416C313.048 283.934 313.4 283.934 313.4 283.934H328.52C336.455 283.934 339.461 274.351 339.461 274.351H286.356Z" fill="#DBBA8F"/>
<path d="M333.972 311.645L325.893 283.934H302.875L316.921 311.645H333.972Z" fill="#C59F79"/>
<path d="M200.855 220.57C200.349 220.57 199.943 220.164 199.943 219.659V127.079C199.943 126.574 200.349 126.169 200.855 126.169C201.36 126.169 201.766 126.574 201.766 127.079V219.659C201.766 220.164 201.36 220.57 200.855 220.57Z" fill="#E7CEA7"/>
<path d="M27.6309 162.173H71.7357C74.1549 162.173 76.2672 163.805 76.881 166.14L100.134 255.051C101.01 258.413 98.473 261.704 94.9887 261.704H52.5809C50.1979 261.704 48.1037 260.117 47.4628 257.827L22.5128 168.916C21.5559 165.536 24.1105 162.173 27.6309 162.173Z" fill="#E7CEA7"/>
<path d="M88.8866 254.906H56.0653C54.6481 254.906 53.3933 253.951 53.0052 252.59L30.673 173C30.4021 172.035 30.5917 171.025 31.1965 170.223C31.8013 169.421 32.722 168.97 33.724 168.97H68.0709C69.5151 168.97 70.7789 169.944 71.14 171.341L91.9557 250.931C92.2085 251.887 92.0008 252.887 91.396 253.671C90.8003 254.456 89.8795 254.906 88.8866 254.906ZM54.7564 252.103C54.9189 252.689 55.4605 253.095 56.0653 253.095H88.8956C89.3199 253.095 89.708 252.905 89.9698 252.563C90.2316 252.229 90.3128 251.796 90.2135 251.391L69.3978 171.801C69.2443 171.206 68.7027 170.782 68.0799 170.782H33.724C33.2907 170.782 32.9026 170.98 32.6408 171.323C32.379 171.665 32.2978 172.098 32.4151 172.513L54.7564 252.103Z" fill="#DBBA8F"/>
<path d="M65.6607 210.465C66.3558 214.332 64.7129 217.866 61.9959 218.352C59.2788 218.839 56.5166 216.09 55.8215 212.222C55.1265 208.355 56.7694 204.821 59.4864 204.335C62.2035 203.848 64.9657 206.588 65.6607 210.465Z" fill="#DBBA8F"/>
<path d="M375.523 162.173H331.418C328.999 162.173 326.886 163.805 326.273 166.14L303.02 255.051C302.144 258.413 304.681 261.704 308.165 261.704H350.573C352.956 261.704 355.05 260.117 355.691 257.827L380.641 168.916C381.598 165.536 379.052 162.173 375.523 162.173Z" fill="#E7CEA7"/>
<path d="M347.088 254.906H314.258C313.265 254.906 312.353 254.456 311.748 253.671C311.144 252.887 310.936 251.887 311.189 250.931L332.005 171.341C332.366 169.944 333.629 168.97 335.074 168.97H369.421C370.423 168.97 371.343 169.43 371.948 170.223C372.553 171.025 372.742 172.035 372.472 173L350.148 252.59C349.769 253.96 348.515 254.906 347.088 254.906ZM335.083 170.791C334.469 170.791 333.927 171.206 333.765 171.81L312.949 251.4C312.841 251.805 312.931 252.238 313.193 252.572C313.455 252.905 313.843 253.104 314.267 253.104H347.097C347.702 253.104 348.244 252.698 348.406 252.112L370.738 172.522C370.856 172.107 370.775 171.674 370.513 171.332C370.251 170.989 369.863 170.791 369.43 170.791H335.083Z" fill="#DBBA8F"/>
<path d="M347.35 212.222C348.044 208.35 346.402 204.818 343.683 204.332C340.964 203.846 338.198 206.591 337.504 210.463C336.811 214.335 338.453 217.867 341.171 218.353C343.89 218.839 346.656 216.094 347.35 212.222Z" fill="#DBBA8F"/>
<path d="M137.812 359.828C137.812 363.073 108.809 365.714 73.0356 365.714C37.2625 365.714 8.25949 363.082 8.25949 359.828C8.25949 356.582 37.2625 353.941 73.0356 353.941C108.809 353.95 137.812 356.582 137.812 359.828Z" fill="#E8D3B3"/>
<path d="M139.816 286.097C139.626 283.059 139.238 280.075 138.669 277.155C137.053 268.861 133.966 261.082 129.688 254.113C128.866 252.779 128.009 251.472 127.097 250.201C124.046 245.91 120.534 241.971 116.617 238.473C115.714 237.671 114.802 236.895 113.864 236.138C110.56 233.479 107.021 231.117 103.266 229.089C102.95 228.917 102.634 228.746 102.309 228.584C101.705 228.268 101.1 227.962 100.486 227.664C97.0919 226.015 93.5354 224.635 89.8615 223.554C88.9498 223.283 88.02 223.031 87.0903 222.796C83.5879 221.913 79.9862 221.3 76.2943 220.975C75.3735 220.894 74.4438 220.831 73.514 220.786C72.3405 220.732 71.167 220.696 69.9845 220.696C67.3487 220.696 64.749 220.849 62.1854 221.129C61.2286 221.237 60.2808 221.354 59.333 221.498C54.8828 222.174 50.577 223.274 46.4518 224.753C45.3505 225.149 44.2582 225.564 43.175 226.015C26.638 232.875 13.3055 245.874 6.03891 262.181C5.56952 263.236 5.1272 264.309 4.70295 265.382C3.15034 269.393 1.95881 273.576 1.16445 277.903C0.992945 278.84 0.83949 279.778 0.713115 280.724C0.243723 283.925 0 287.215 0 290.559C0 290.938 0 291.308 0.00902677 291.686C0.0270803 292.624 0.0631874 293.552 0.108321 294.481C0.30691 298.06 0.776302 301.557 1.48942 304.974C1.68801 305.929 1.91368 306.885 2.14837 307.822C3.0691 311.428 4.26063 314.917 5.72297 318.279C6.15626 319.271 6.60759 320.254 7.08601 321.227C7.40195 321.867 7.72691 322.507 8.0609 323.138C9.68572 326.221 11.5452 329.169 13.6033 331.955C14.3616 332.982 15.1379 333.983 15.9503 334.956C19.3173 339.04 23.1446 342.745 27.3511 345.972C28.651 346.973 29.996 347.937 31.368 348.839C38.3547 353.463 46.2171 356.871 54.6571 358.755C57.654 359.422 60.714 359.9 63.8373 360.17C65.8593 360.342 67.9084 360.441 69.9755 360.441C108.619 360.441 139.951 329.151 139.951 290.559C139.96 289.063 139.906 287.576 139.816 286.097Z" fill="#D26040"/>
<path d="M46.4427 224.735C45.3415 225.131 44.2492 225.546 43.166 225.997C39.9435 236.3 34.7531 244.639 27.6039 250.931C20.8609 256.872 13.1249 260.252 6.02989 262.154C5.56049 263.209 5.11818 264.282 4.69392 265.355C12.6646 263.479 21.6552 259.865 29.4273 253.023C37.4521 245.973 43.1389 236.499 46.4427 224.735Z" fill="#A73625"/>
<path d="M40.8461 265.364C52.5358 255.141 59.676 240.303 62.1764 221.111C61.2196 221.219 60.2717 221.336 59.3239 221.48C56.8235 239.627 50.0354 253.626 39.0227 263.254C27.3692 273.45 13.0076 276.749 3.01494 277.723C2.38307 277.786 1.76022 277.84 1.15542 277.885C0.983916 278.822 0.830461 279.76 0.704086 280.706C1.5165 280.652 2.34696 280.589 3.2045 280.499C13.6124 279.507 28.6058 276.064 40.8461 265.364Z" fill="#A73625"/>
<path d="M11.5633 294.04C22.8287 292.931 39.0317 289.208 52.274 277.696C66.753 265.112 74.7958 246.064 76.2852 220.958C75.3645 220.877 74.4347 220.814 73.505 220.769C72.0697 245.108 64.3428 263.507 50.4596 275.587C37.7951 286.602 22.2149 290.19 11.3737 291.263C7.11309 291.687 3.23158 291.759 0 291.687C0.0180535 292.624 0.0541606 293.553 0.0992945 294.481C0.740195 294.49 1.39915 294.499 2.08518 294.499C4.91056 294.499 8.10604 294.382 11.5633 294.04Z" fill="#A73625"/>
<path d="M19.9401 307.57C27.6309 306.804 34.9155 305.19 41.5954 302.783C49.9722 299.763 57.4103 295.472 63.7109 290.027C80.4014 275.604 89.1755 253.257 89.8525 223.545C88.9408 223.274 88.011 223.022 87.0812 222.787C86.5396 252.022 78.0906 273.909 61.9056 287.909C48.2391 299.736 31.4402 303.621 19.7506 304.793C12.0507 305.569 5.4973 305.307 1.48942 304.965C1.68801 305.92 1.91368 306.876 2.14837 307.813C4.14329 307.958 6.63468 308.084 9.50519 308.084C12.6014 308.084 16.1218 307.949 19.9401 307.57Z" fill="#A73625"/>
<path d="M28.317 321.101C36.5494 320.272 44.3395 318.541 51.4887 315.963C60.4523 312.735 68.4139 308.156 75.1569 302.359C93.2556 286.8 102.689 262.605 103.239 230.405C102.67 229.251 102.327 228.611 102.3 228.566C101.696 228.25 101.091 227.944 100.477 227.646C100.423 260.369 91.3058 284.781 73.3515 300.232C58.674 312.87 40.6566 317.044 28.1274 318.324C17.6654 319.388 9.17119 318.676 5.73199 318.279C6.16528 319.271 6.61662 320.253 7.09504 321.227C9.41492 321.452 12.8 321.678 16.9342 321.678C20.2831 321.678 24.1286 321.525 28.317 321.101Z" fill="#A73625"/>
<path d="M61.382 329.151C70.9324 325.716 79.4175 320.849 86.6028 314.701C101.136 302.26 110.443 284.637 114.423 262.118C114.577 261.262 114.721 260.396 114.857 259.522C115.886 252.914 116.472 245.901 116.617 238.482C115.714 237.68 114.802 236.904 113.864 236.147C113.828 241.799 113.539 247.217 112.988 252.4C112.889 253.311 112.789 254.212 112.672 255.105C109.531 280.129 100.197 299.412 84.8155 312.582C69.127 326.023 49.8819 330.494 36.5043 331.873C29.7342 332.577 23.7314 332.577 19.236 332.369C19.1187 332.36 19.0013 332.36 18.875 332.351C16.7266 332.252 14.9303 332.099 13.5943 331.964C14.3526 332.991 15.1289 333.992 15.9413 334.965C18.1799 335.128 21.0233 335.272 24.3362 335.272C24.3632 335.272 24.3994 335.272 24.4355 335.272C24.7333 335.272 25.0403 335.272 25.3562 335.263C28.7412 335.236 32.5686 335.065 36.7028 334.641C45.4588 333.739 53.7634 331.891 61.382 329.151Z" fill="#A73625"/>
<path d="M98.0578 327.032C117.068 310.833 127.675 286.331 129.688 254.113C128.866 252.779 128.009 251.472 127.097 250.201C126.221 271.791 121.554 289.937 113.169 304.478C108.628 312.357 102.986 319.172 96.2705 324.905C89.5456 330.638 82.2068 334.839 74.9132 337.904C64.0901 342.456 53.3663 344.512 44.8721 345.395C38.0749 346.107 32.018 346.152 27.3421 345.981C28.6419 346.982 29.9869 347.946 31.359 348.848C31.4854 348.848 31.6117 348.848 31.7381 348.848C35.6377 348.848 40.1511 348.668 45.0707 348.163C54.3773 347.198 63.1964 345.233 71.2844 342.33C81.4215 338.688 90.4302 333.541 98.0578 327.032Z" fill="#A73625"/>
<path d="M138.669 277.146C134.589 303.063 124.226 323.21 107.734 337.228C90.5656 351.814 69.6596 357.006 54.6571 358.755C57.654 359.422 60.7141 359.9 63.8373 360.17C69.8853 359.034 75.6985 357.475 81.1777 355.501C91.9015 351.651 101.434 346.216 109.513 339.356C124.687 326.474 134.815 308.625 139.807 286.088C139.617 283.059 139.238 280.066 138.669 277.146Z" fill="#A73625"/>
<path d="M496.752 329.494C558.745 329.494 609 325.922 609 321.516C609 317.11 558.745 313.538 496.752 313.538C434.759 313.538 384.504 317.11 384.504 321.516C384.504 325.922 434.759 329.494 496.752 329.494Z" fill="#E8D3B3"/>
<path d="M547.997 139.204C547.997 139.204 515.925 68.5382 547.537 63.0483C571.701 58.8565 569.029 107.517 547.997 139.204Z" fill="#006837"/>
<path d="M547.464 184.683C547.167 184.683 546.932 184.439 546.941 184.151C547.194 160.001 548.972 92.2286 548.99 91.5525C548.999 91.2641 549.234 91.0297 549.532 91.0387C549.821 91.0477 550.055 91.2911 550.046 91.5796C550.028 92.2647 548.25 160.019 547.997 184.16C547.988 184.448 547.753 184.683 547.464 184.683Z" fill="#00431F"/>
<path d="M540.685 158.008C540.685 158.008 492.419 112.268 509.823 94.2569C529.005 74.3887 543.664 125.484 540.685 158.008Z" fill="#006837"/>
<path d="M545.84 180.554C545.569 180.554 545.334 180.347 545.316 180.067C543.791 160.704 524.473 118.281 524.275 117.857C524.157 117.596 524.275 117.28 524.537 117.163C524.798 117.046 525.114 117.163 525.232 117.424C525.43 117.848 544.82 160.442 546.363 179.995C546.39 180.283 546.174 180.536 545.876 180.563C545.876 180.554 545.858 180.554 545.84 180.554Z" fill="#00431F"/>
<path d="M555.58 156.809C555.58 156.809 606.012 113.467 589.502 94.6265C571.304 73.8478 554.189 124.176 555.58 156.809Z" fill="#006837"/>
<path d="M549.36 179.067C549.342 179.067 549.315 179.067 549.297 179.067C549.008 179.03 548.8 178.769 548.837 178.481C551.328 159.027 572.767 117.425 572.983 117.01C573.119 116.748 573.435 116.649 573.696 116.784C573.958 116.92 574.057 117.235 573.922 117.497C573.705 117.911 552.348 159.343 549.884 178.616C549.848 178.877 549.622 179.067 549.36 179.067Z" fill="#00431F"/>
<path d="M575.637 167.293L574.888 169.268L574.418 170.521L573.064 174.108L572.595 175.362L571.205 179.039L570.736 180.293L564.778 196.095H532.227L526.27 180.293L525.8 179.039L524.41 175.362L523.941 174.108L522.587 170.521L522.117 169.268L521.368 167.293C520.854 165.941 521.856 164.49 523.309 164.49H573.705C575.141 164.499 576.143 165.941 575.637 167.293Z" fill="#D26040"/>
<path d="M574.888 169.268L574.418 170.521H522.578L522.108 169.268H574.888Z" fill="#A73625"/>
<path d="M573.064 174.108L572.595 175.361H524.41L523.932 174.108H573.064Z" fill="#A73625"/>
<path d="M571.205 179.039L570.735 180.292H526.27L525.791 179.039H571.205Z" fill="#A73625"/>
<path d="M463.362 165.545H469.609C469.609 165.545 469.916 164.923 470.448 163.787C470.701 163.255 471.008 162.606 471.369 161.849C472.253 159.965 473.427 157.44 474.772 154.457C474.781 154.43 474.799 154.403 474.808 154.375C483.23 135.679 498.332 99.3772 492.157 92.1655C485.144 83.9712 476.767 96.2492 470.674 119.498C470.259 121.093 469.852 122.743 469.455 124.438C467.271 133.813 465.456 144.667 464.202 156.485C464.012 158.252 463.841 160.046 463.678 161.858C463.561 163.066 463.461 164.301 463.362 165.545Z" fill="#006837"/>
<path d="M463.678 161.84L465.565 165.536H469.618C469.618 165.536 469.925 164.914 470.457 163.778L470.683 119.48C467.605 131.226 465.113 145.748 463.678 161.84Z" fill="#00431F"/>
<path d="M465.33 165.545H466.35L486.019 101.189C486.101 100.928 485.956 100.657 485.694 100.576C485.433 100.495 485.162 100.639 485.081 100.901L465.33 165.545Z" fill="#00431F"/>
<path d="M447.403 152.473C447.863 153.51 448.314 154.511 448.739 155.448C449.894 157.99 450.905 160.163 451.681 161.84C452.783 164.183 453.442 165.536 453.442 165.536H459.688C459.589 164.292 459.49 163.057 459.381 161.84C459.228 160.118 459.056 158.405 458.885 156.719C457.666 145.181 455.915 134.552 453.812 125.321C453.487 123.888 453.153 122.5 452.81 121.139C446.69 96.8261 438.087 83.7639 430.911 92.1565C424.926 99.1429 438.854 133.326 447.403 152.473Z" fill="#006837"/>
<path d="M459.372 161.84L457.486 165.536H453.433C453.433 165.536 453.126 164.914 452.593 163.778L452.368 119.48C455.446 131.226 457.937 145.748 459.372 161.84Z" fill="#00431F"/>
<path d="M457.72 165.545H456.7L437.031 101.189C436.95 100.928 437.094 100.657 437.356 100.576C437.618 100.495 437.889 100.639 437.97 100.901L457.72 165.545Z" fill="#00431F"/>
<path d="M453.803 125.33C454.678 137.635 455.888 149.147 456.755 156.674C457.386 162.173 457.838 165.545 457.838 165.545H463.362C464.012 162.462 464.608 159.397 465.158 156.377C467.208 145.144 468.616 134.372 469.455 124.438C472.687 86.3421 467.623 60.4431 458.325 67.3393C451.654 72.2793 452.034 100.423 453.803 125.33Z" fill="#006837"/>
<path d="M448.739 155.457C449.894 157.999 450.905 160.172 451.681 161.849C452.783 164.192 453.442 165.545 453.442 165.545H469.609C469.609 165.545 469.916 164.923 470.448 163.787C470.701 163.255 471.008 162.606 471.369 161.849C472.253 159.964 473.427 157.44 474.772 154.457C472.786 155.033 469.347 155.89 465.158 156.377C464.842 156.413 464.527 156.449 464.202 156.476C462.514 156.638 460.726 156.737 458.876 156.728C458.181 156.728 457.468 156.71 456.754 156.674C454.128 156.539 451.411 156.169 448.739 155.457Z" fill="#00431F"/>
<path d="M461.078 79.2205L461.737 165.536H462.712L462.053 79.2115C462.053 78.9411 461.828 78.7337 461.557 78.7247C461.295 78.7337 461.069 78.9591 461.078 79.2205Z" fill="#00431F"/>
<path d="M433.312 164.878L434.124 167.023L434.639 168.384L436.101 172.27L436.616 173.631L438.123 177.624L438.638 178.976L445.092 196.104H480.378L486.832 178.976L487.346 177.624L488.854 173.631L489.368 172.27L490.831 168.384L491.345 167.023L492.157 164.878C492.708 163.408 491.625 161.84 490.054 161.84H435.433C433.845 161.84 432.752 163.408 433.312 164.878Z" fill="#F4AD4B"/>
<path d="M434.115 167.023L434.63 168.375H490.812L491.327 167.023H434.115Z" fill="#D57635"/>
<path d="M436.092 172.26L436.607 173.622H488.836L489.35 172.26H436.092Z" fill="#D57635"/>
<path d="M438.114 177.615L438.62 178.967H486.823L487.328 177.615H438.114Z" fill="#D57635"/>
<path d="M418.183 216.207H583.066C584.158 216.207 585.034 215.323 585.034 214.242V207.021H416.215V214.242C416.215 215.323 417.091 216.207 418.183 216.207Z" fill="#DBBA8F"/>
<path d="M412.975 199.8V203.361C412.975 205.407 414.085 207.066 415.448 207.066H587.309C588.672 207.066 589.782 205.407 589.782 203.361V199.8C589.782 197.754 588.681 196.095 587.309 196.095H415.448C414.085 196.095 412.975 197.754 412.975 199.8Z" fill="#E7CEA7"/>
<path d="M589.773 201.576H412.975V203.208H589.773V201.576Z" fill="#DBBA8F"/>
<path d="M436.932 211.682L409.057 321.795H416.053L447.674 215.846L436.932 211.682Z" fill="#DBBA8F"/>
<path d="M565.825 211.682L593.7 321.795H586.695L554.948 215.405L565.825 211.682Z" fill="#DBBA8F"/>
<path d="M578.038 266.283C577.876 266.283 577.704 266.265 577.542 266.229L431.642 234.93C430.36 234.66 429.548 233.398 429.828 232.118C430.099 230.838 431.362 230.026 432.644 230.306L578.544 261.604C579.825 261.875 580.638 263.137 580.358 264.417C580.105 265.526 579.13 266.283 578.038 266.283Z" fill="#E7CEA7"/>
<path d="M423.22 268.194C422.128 268.194 421.144 267.437 420.909 266.328C420.638 265.048 421.451 263.795 422.724 263.516L570.988 231.712C572.27 231.433 573.525 232.253 573.805 233.524C574.075 234.804 573.263 236.057 571.99 236.337L423.717 268.14C423.554 268.176 423.383 268.194 423.22 268.194Z" fill="#E7CEA7"/>
<path d="M591.876 363.425C591.876 366.435 576.928 368.869 558.486 368.869C540.045 368.869 525.096 366.426 525.096 363.425C525.096 360.414 540.045 357.98 558.486 357.98C576.928 357.98 591.876 360.423 591.876 363.425Z" fill="#E8D3B3"/>
<path d="M527.209 308.724C528.788 323.084 536.614 333.343 549.541 332.162C549.541 332.162 559.588 323.355 553.458 308.724C551.445 303.928 548.755 298.799 546.372 293.57C541.48 282.861 537.86 271.71 543.989 262.037C543.989 262.037 532.291 269.42 528.03 291.758C526.893 297.726 526.631 303.495 527.209 308.724Z" fill="#00431F"/>
<path d="M565.527 329.584C565.762 329.953 566.005 330.287 566.24 330.593C567.522 332.252 568.641 332.946 568.641 332.946C568.641 332.946 590.432 328.349 586.857 310.013C586.505 308.228 586.316 306.425 586.271 304.631C585.828 288.026 597.401 271.611 604.739 263.254C604.739 263.254 582.299 268.284 568.641 296.383C568.018 297.654 567.459 298.889 566.944 300.088C560.021 316.287 562.729 325.257 565.527 329.584Z" fill="#00431F"/>
<path d="M546.932 289.126C546.986 291.272 547.185 293.615 547.546 296.212C550.272 316.071 545.081 322.48 549.848 329.845C552.005 333.172 552.899 334.019 556.554 333.848C557.051 333.83 557.547 333.785 558.044 333.73C561.853 333.316 565.022 332.09 565.022 332.09C565.022 332.09 576.946 327.979 573.696 298.961C573.326 295.653 572.73 292.768 572.739 290.181C572.785 275.694 572.27 273.026 577.966 254.744C579.744 249.029 584.718 237.58 584.718 237.58C584.718 237.58 571.06 241.123 562.575 249.949C548.593 264.498 546.589 274.883 546.932 289.126Z" fill="#006837"/>
<path d="M556.555 333.848C557.051 333.83 557.547 333.785 558.044 333.73C559.994 331.08 562.422 326.501 564.399 318.703C566.556 310.202 565.455 303.261 564.281 295.905C563.325 289.892 562.341 283.672 563.117 276.208C564.814 260.054 570.826 254.23 570.889 254.176C571.106 253.969 571.115 253.627 570.916 253.41C570.708 253.194 570.365 253.185 570.149 253.383C569.887 253.627 563.785 259.486 562.043 276.1C561.239 283.708 562.241 289.992 563.207 296.085C564.363 303.324 565.446 310.166 563.343 318.451C561.185 326.942 558.477 331.504 556.555 333.848Z" fill="#00431F"/>
<path d="M589.168 331.134L588.311 333.397L587.769 334.83L586.225 338.932L585.684 340.365L584.095 344.575L583.554 346.008L578.553 359.278C577.46 362.172 574.689 364.083 571.593 364.083H544.648C541.552 364.083 538.781 362.172 537.689 359.278L532.688 346.008L532.146 344.575L530.557 340.365L530.016 338.932L528.472 334.83L527.931 333.397L527.073 331.134C526.486 329.584 527.633 327.934 529.294 327.934H586.939C588.609 327.934 589.746 329.584 589.168 331.134Z" fill="#D26040"/>
<path d="M588.311 333.397L587.778 334.83H528.472L527.94 333.397H588.311Z" fill="#A73625"/>
<path d="M586.225 338.932L585.684 340.365H530.566L530.025 338.932H586.225Z" fill="#A73625"/>
<path d="M584.095 344.575L583.563 346.008H532.688L532.155 344.575H584.095Z" fill="#A73625"/>
<path d="M320.432 376C427.866 376 514.959 368.739 514.959 359.783C514.959 350.826 427.866 343.565 320.432 343.565C212.998 343.565 125.905 350.826 125.905 359.783C125.905 368.739 212.998 376 320.432 376Z" fill="#E8D3B3"/>
<path d="M321.561 371.042C421.856 371.042 503.161 365.371 503.161 358.376C503.161 351.381 421.856 345.711 321.561 345.711C221.265 345.711 139.96 351.381 139.96 358.376C139.96 365.371 221.265 371.042 321.561 371.042Z" fill="#006837"/>
<path d="M320.432 363.659C403.074 363.659 470.069 360.41 470.069 356.402C470.069 352.394 403.074 349.146 320.432 349.146C237.79 349.146 170.796 352.394 170.796 356.402C170.796 360.41 237.79 363.659 320.432 363.659Z" fill="#00431F"/>
<path d="M281.897 187.847C281.825 190.019 281.536 191.903 281.184 193.634C280.462 197.078 279.46 199.981 278.386 202.712C277.311 205.434 276.138 207.958 274.919 210.401C273.701 212.835 272.419 215.17 271.11 217.46C268.483 222.021 265.721 226.357 262.86 230.603C261.424 232.722 259.971 234.813 258.473 236.886C257.732 237.923 256.974 238.951 256.207 239.987L255.042 241.538L254.447 242.322L254.14 242.719L253.788 243.17L231.591 224.599L231.69 224.491L231.816 224.347L232.087 224.05L232.638 223.428L233.748 222.157C234.488 221.3 235.229 220.426 235.96 219.551C237.422 217.793 238.866 216.018 240.275 214.233C243.091 210.654 245.799 207.003 248.263 203.352C249.5 201.522 250.673 199.692 251.757 197.88C252.84 196.068 253.833 194.265 254.663 192.552C255.042 191.786 255.376 191.029 255.674 190.317C254.429 190.398 253.093 190.542 251.73 190.732C249.653 191.02 247.496 191.417 245.321 191.876C240.961 192.796 236.51 193.968 232.069 195.275C229.849 195.933 227.628 196.618 225.416 197.339C224.306 197.7 223.205 198.069 222.113 198.439L220.479 199.007L218.917 199.557L211.163 180.996L212.969 180.184L214.711 179.418C215.875 178.913 217.031 178.427 218.186 177.94C220.506 176.975 222.844 176.038 225.2 175.127C229.921 173.315 234.723 171.63 239.742 170.142C242.251 169.403 244.815 168.709 247.496 168.105C250.177 167.51 252.957 166.987 256.044 166.69C257.588 166.545 259.213 166.446 261.009 166.491C262.805 166.536 264.773 166.681 267.12 167.248C268.294 167.537 269.584 167.943 270.984 168.583C271.679 168.898 272.419 169.295 273.159 169.754C273.908 170.223 274.667 170.782 275.407 171.431C275.786 171.765 276.147 172.107 276.508 172.486C276.689 172.666 276.86 172.865 277.032 173.063L277.293 173.36L277.42 173.514L277.528 173.649C278.079 174.334 278.584 175.064 279.026 175.803C279.92 177.291 280.543 178.823 280.976 180.266C281.41 181.717 281.644 183.078 281.78 184.34C281.906 185.584 281.933 186.756 281.897 187.847Z" fill="#AD624A"/>
<path d="M262.264 193.084C262.074 193.084 261.876 193.012 261.722 192.868C259.664 190.939 256.324 191.074 256.288 191.074C255.864 191.083 255.485 190.759 255.458 190.326C255.44 189.893 255.774 189.524 256.207 189.497C256.369 189.488 260.251 189.316 262.796 191.714C263.112 192.012 263.13 192.507 262.832 192.832C262.679 193.003 262.471 193.084 262.264 193.084Z" fill="#912B3B"/>
<path d="M259.664 195.428C259.33 195.428 259.023 195.212 258.915 194.887C258.906 194.851 258.265 192.985 256.351 191.2C256.035 190.903 256.017 190.407 256.315 190.082C256.613 189.767 257.109 189.749 257.434 190.046C259.673 192.138 260.395 194.31 260.422 194.4C260.558 194.815 260.332 195.257 259.917 195.392C259.827 195.419 259.745 195.428 259.664 195.428Z" fill="#912B3B"/>
<path d="M468.877 284.015L461.638 296.554L448.73 292.173L441.31 289.649L449.118 275.226L456.556 278.534L468.877 284.015Z" fill="#D07B5C"/>
<path d="M506.573 264.471L479.213 311.915C478.365 311.897 477.344 311.572 476.216 311.023C472.028 309.003 466.35 304.036 462.667 301.088C462.243 300.737 461.837 300.421 461.466 300.142C460.844 299.664 460.311 299.286 459.896 299.051C456.592 297.149 458.84 294.562 458.84 294.562C466.323 292.47 462.387 282.969 466.539 281.13C466.539 281.13 466.684 281.067 467.027 280.932C467.37 280.797 467.893 280.589 468.67 280.301C469.816 279.877 471.504 279.282 473.878 278.516C479.439 276.704 485.378 271.584 490.803 267.446C491.471 266.932 492.112 266.472 492.735 266.049C493.214 265.724 493.674 265.418 494.116 265.147C499.144 262.028 502.285 261.929 504.154 262.578C505.941 263.173 506.573 264.471 506.573 264.471Z" fill="white"/>
<path d="M494.116 265.129C494.324 266.977 494.55 270.872 493.078 272.846C492.789 273.233 492.112 273.801 491.183 274.486C488.772 276.253 484.629 278.759 480.937 280.833C478.003 282.482 475.223 283.916 473.111 284.889C469.654 286.476 468.679 286.521 468.146 286.332C466.494 285.755 466.585 283.176 467.018 280.914C467.361 280.779 467.884 280.571 468.661 280.283C468.092 282.69 468.038 284.7 468.616 284.934C469.302 285.015 472.994 283.609 480.459 279.408C486.155 276.199 491.183 272.927 491.905 271.962C492.862 270.682 492.889 267.969 492.735 266.031C493.205 265.715 493.674 265.409 494.116 265.129Z" fill="#BACAD2"/>
<path d="M506.573 264.471L479.204 311.915C478.356 311.897 477.336 311.563 476.207 311.023L504.154 262.56C505.941 263.173 506.573 264.471 506.573 264.471Z" fill="#BACAD2"/>
<path d="M481.993 307.074L481.181 308.48C480.387 306.146 478.671 303.414 475.043 301.557C470.213 299.087 465.429 300.079 462.658 301.088C462.234 300.737 461.827 300.421 461.457 300.142C464.283 298.961 469.861 297.447 475.638 300.403C479.105 302.17 480.982 304.721 481.993 307.074Z" fill="#BACAD2"/>
<path d="M476.207 280.923C476.009 281.274 475.584 281.455 475.178 281.337C474.7 281.202 474.42 280.697 474.555 280.22L475.53 276.83C475.666 276.352 476.171 276.073 476.649 276.208C477.128 276.343 477.408 276.848 477.272 277.326L476.297 280.715C476.27 280.788 476.243 280.86 476.207 280.923Z" fill="#BACAD2"/>
<path d="M472.037 282.446C471.838 282.798 471.414 282.978 471.008 282.861C470.529 282.726 470.249 282.221 470.385 281.743L471.36 278.354C471.495 277.876 472.001 277.596 472.479 277.732C472.957 277.867 473.237 278.372 473.102 278.849L472.127 282.239C472.109 282.311 472.073 282.383 472.037 282.446Z" fill="#BACAD2"/>
<path d="M479.646 278.949C479.448 279.3 479.023 279.48 478.617 279.363C478.139 279.228 477.859 278.723 477.995 278.245L478.969 274.856C479.105 274.378 479.61 274.099 480.089 274.234C480.567 274.369 480.847 274.874 480.711 275.352L479.737 278.741C479.71 278.822 479.682 278.885 479.646 278.949Z" fill="#BACAD2"/>
<path d="M483.013 276.938C482.815 277.29 482.391 277.47 481.984 277.353C481.506 277.218 481.226 276.713 481.362 276.235L482.336 272.846C482.472 272.368 482.977 272.088 483.456 272.224C483.934 272.359 484.214 272.864 484.079 273.341L483.104 276.731C483.077 276.812 483.05 276.875 483.013 276.938Z" fill="#BACAD2"/>
<path d="M486.407 274.585C486.209 274.937 485.785 275.117 485.378 275C484.9 274.865 484.62 274.36 484.756 273.882L485.73 270.493C485.866 270.015 486.371 269.736 486.85 269.871C487.328 270.006 487.608 270.511 487.473 270.989L486.498 274.378C486.471 274.459 486.444 274.522 486.407 274.585Z" fill="#BACAD2"/>
<path d="M489.738 271.836C489.54 272.188 489.115 272.368 488.709 272.251C488.231 272.115 487.951 271.611 488.086 271.133L489.061 267.743C489.197 267.266 489.702 266.986 490.181 267.121C490.659 267.257 490.939 267.761 490.803 268.239L489.829 271.629C489.801 271.71 489.774 271.773 489.738 271.836Z" fill="#BACAD2"/>
<path d="M450.815 276.181L442.935 290.037C442.935 290.037 438.25 289.036 432.048 287.503C431.57 287.386 431.091 287.269 430.604 287.143C423.419 285.331 414.636 282.888 408.75 280.454C397.223 275.685 371.298 261.902 371.298 261.902C371.298 261.902 367.94 278.209 349.86 306.074C309.799 367.806 276.598 316.945 276.598 316.945C280.814 316.485 292.576 295.68 299.138 287.458C318.798 266.526 335.832 249.795 350.275 238.906C353.75 236.282 357.099 234.092 360.303 232.334C364.429 230.071 372.183 231.595 381.498 235.147C401.132 242.629 427.327 259.802 441.219 269.393C441.617 269.673 442.014 269.943 442.393 270.204C447.619 273.828 450.815 276.181 450.815 276.181Z" fill="#310F0B"/>
<path d="M433.718 284.727C433.556 285.015 433.204 285.16 432.879 285.051C419.113 280.535 403.262 272.647 390.525 266.31C379.964 261.055 369.989 256.096 368.085 256.746C366.541 257.277 364.754 262.109 362.506 268.23C358.029 280.409 351.25 298.817 336.383 314.908C328.286 323.679 319.141 328.313 309.221 328.691C292.106 329.349 278.449 316.873 278.313 316.747C278.024 316.476 278.006 316.026 278.277 315.746C278.548 315.458 278.999 315.44 279.279 315.71C279.415 315.836 292.657 327.916 309.176 327.276C318.699 326.906 327.5 322.417 335.335 313.943C350.013 298.06 356.729 279.814 361.17 267.743C363.833 260.514 365.44 256.151 367.624 255.402C369.989 254.591 377.319 258.152 391.166 265.039C403.858 271.358 419.655 279.219 433.33 283.699C433.7 283.825 433.908 284.222 433.781 284.601C433.763 284.637 433.745 284.682 433.718 284.727Z" fill="#491B0B"/>
<path d="M442.393 270.195L432.048 287.503C431.57 287.386 431.091 287.269 430.604 287.143L441.22 269.384C441.617 269.663 442.014 269.934 442.393 270.195Z" fill="#491B0B"/>
<path d="M468.2 313.168L460.618 325.5L447.836 320.758L440.488 318.027L448.703 303.829L456.032 307.345L468.2 313.168Z" fill="#D07B5C"/>
<path d="M506.429 294.679L477.742 341.339C476.893 341.303 475.882 340.942 474.772 340.365C470.638 338.238 465.104 333.108 461.503 330.052C461.087 329.692 460.69 329.367 460.329 329.07C459.715 328.574 459.192 328.186 458.795 327.934C455.545 325.942 457.865 323.418 457.865 323.418C465.402 321.534 461.737 311.933 465.935 310.202C465.935 310.202 466.079 310.139 466.422 310.013C466.765 309.887 467.298 309.688 468.083 309.427C469.248 309.039 470.945 308.489 473.346 307.786C478.96 306.128 485.035 301.179 490.578 297.194C491.264 296.698 491.914 296.257 492.546 295.851C493.033 295.535 493.503 295.247 493.954 294.986C499.063 292.011 502.213 292.002 504.064 292.696C505.833 293.372 506.429 294.679 506.429 294.679Z" fill="white"/>
<path d="M493.963 294.995C494.116 296.843 494.234 300.746 492.708 302.675C492.41 303.054 491.715 303.604 490.767 304.262C488.312 305.956 484.097 308.354 480.351 310.319C477.372 311.879 474.555 313.249 472.416 314.16C468.914 315.647 467.939 315.674 467.406 315.467C465.772 314.845 465.935 312.276 466.431 310.022C466.774 309.896 467.307 309.697 468.092 309.436C467.46 311.825 467.343 313.826 467.912 314.088C468.598 314.187 472.326 312.889 479.899 308.895C485.685 305.848 490.804 302.72 491.553 301.774C492.546 300.521 492.645 297.807 492.546 295.86C493.033 295.554 493.512 295.265 493.963 294.995Z" fill="#BACAD2"/>
<path d="M506.429 294.679L477.742 341.339C476.893 341.303 475.882 340.942 474.772 340.365L504.073 292.705C505.833 293.372 506.429 294.679 506.429 294.679Z" fill="#BACAD2"/>
<path d="M480.666 336.579L479.818 337.967C479.087 335.614 477.453 332.829 473.878 330.873C469.121 328.268 464.31 329.124 461.512 330.052C461.096 329.692 460.699 329.358 460.338 329.07C463.2 327.97 468.814 326.609 474.51 329.728C477.922 331.603 479.728 334.199 480.666 336.579Z" fill="#BACAD2"/>
<path d="M475.62 310.283C475.413 310.626 474.98 310.797 474.573 310.671C474.095 310.518 473.833 310.013 473.987 309.535L475.052 306.173C475.205 305.695 475.711 305.434 476.189 305.587C476.668 305.74 476.929 306.245 476.776 306.723L475.711 310.085C475.684 310.148 475.657 310.22 475.62 310.283Z" fill="#BACAD2"/>
<path d="M471.405 311.69C471.197 312.032 470.764 312.203 470.358 312.077C469.88 311.924 469.618 311.419 469.771 310.941L470.836 307.579C470.99 307.101 471.495 306.84 471.974 306.993C472.452 307.146 472.714 307.651 472.56 308.129L471.495 311.491C471.477 311.554 471.441 311.627 471.405 311.69Z" fill="#BACAD2"/>
<path d="M479.105 308.408C478.897 308.751 478.464 308.922 478.058 308.796C477.579 308.643 477.318 308.138 477.471 307.66L478.536 304.298C478.69 303.82 479.195 303.559 479.674 303.712C480.152 303.865 480.414 304.37 480.26 304.848L479.195 308.21C479.177 308.273 479.141 308.345 479.105 308.408Z" fill="#BACAD2"/>
<path d="M482.526 306.488C482.309 306.831 481.885 307.002 481.479 306.876C481 306.723 480.739 306.218 480.892 305.74L481.957 302.378C482.111 301.9 482.616 301.638 483.095 301.792C483.573 301.945 483.835 302.45 483.681 302.927L482.616 306.29C482.598 306.362 482.571 306.425 482.526 306.488Z" fill="#BACAD2"/>
<path d="M485.992 304.235C485.776 304.577 485.351 304.748 484.945 304.622C484.467 304.469 484.205 303.964 484.358 303.486L485.424 300.124C485.577 299.646 486.083 299.385 486.561 299.538C487.039 299.691 487.301 300.196 487.148 300.674L486.083 304.036C486.064 304.108 486.028 304.171 485.992 304.235Z" fill="#BACAD2"/>
<path d="M489.395 301.575C489.188 301.918 488.754 302.089 488.348 301.963C487.87 301.81 487.608 301.305 487.761 300.827L488.827 297.465C488.98 296.987 489.486 296.725 489.964 296.879C490.442 297.032 490.704 297.537 490.551 298.014L489.486 301.377C489.468 301.449 489.431 301.512 489.395 301.575Z" fill="#BACAD2"/>
<path d="M449.957 304.189L442.023 318.604C442.023 318.604 437.582 317.143 431.651 315.07C431.2 314.908 430.739 314.755 430.279 314.583C423.193 312.095 414.437 308.886 408.543 306.254C397.151 301.17 371.289 288.333 371.289 288.333C371.289 288.333 367.48 304.541 348.623 331.882C306.847 392.47 275.082 340.699 275.082 340.699C279.306 340.356 291.655 319.884 298.443 311.852C318.681 291.479 336.175 275.235 350.916 264.751C354.463 262.226 357.866 260.135 361.125 258.467C365.313 256.322 373.022 258.062 382.23 261.866C401.863 269.988 427.715 287.873 441.084 297.591C441.481 297.879 441.869 298.159 442.239 298.429C447.042 301.936 449.957 304.189 449.957 304.189Z" fill="#491B0B"/>
<path d="M306.594 347.27C306.305 347.27 306.026 347.27 305.755 347.261C299.021 347.099 294.471 345.17 294.282 345.089L294.733 344.052C294.778 344.07 299.31 345.99 305.836 346.135C311.839 346.27 320.82 344.881 329.513 337.535C340.914 327.889 349.363 308.904 355.537 295.04C360.303 284.33 363.454 277.254 366.451 276.713C371.19 275.857 383.872 282.879 398.55 291.01C410.862 297.834 424.827 305.569 434.901 308.886L434.549 309.959C424.366 306.605 410.357 298.844 397.999 292.002C384.107 284.303 370.991 277.037 366.649 277.822C364.239 278.254 360.683 286.25 356.566 295.499C350.356 309.463 341.844 328.592 330.244 338.4C321.651 345.657 312.787 347.27 306.594 347.27Z" fill="#6D2B19"/>
<path d="M433.041 312.898C432.87 313.177 432.518 313.312 432.193 313.195C418.553 308.291 402.937 299.971 390.381 293.282C379.973 287.738 370.143 282.491 368.211 283.095C366.649 283.582 364.736 288.369 362.307 294.427C357.487 306.479 350.203 324.68 334.884 340.356C326.543 348.893 317.273 353.274 307.343 353.382C290.22 353.563 276.914 340.708 276.788 340.581C276.508 340.302 276.499 339.851 276.779 339.572C277.059 339.292 277.501 339.283 277.79 339.563C277.916 339.689 290.815 352.138 307.343 351.958C316.876 351.859 325.803 347.622 333.864 339.364C348.984 323.895 356.205 305.848 360.99 293.904C363.851 286.755 365.575 282.437 367.787 281.743C370.17 281.004 377.4 284.763 391.049 292.029C403.56 298.7 419.131 306.993 432.671 311.861C433.041 311.996 433.231 312.402 433.104 312.771C433.086 312.807 433.059 312.852 433.041 312.898Z" fill="#6D2B19"/>
<path d="M442.23 298.429L431.642 315.07C431.191 314.908 430.73 314.755 430.27 314.583L441.084 297.582C441.481 297.87 441.86 298.159 442.23 298.429Z" fill="#6D2B19"/>
<path d="M305.529 291.2C298.696 304.839 302.325 360.378 289.227 355.618C257.823 344.214 234.317 322.426 222.185 307.092C220.668 305.181 218.899 303.216 216.976 301.233C214.142 298.312 210.956 295.337 207.733 292.362C195.592 281.184 182.738 270.078 184.886 262.254C186.818 255.231 191.674 251.761 194.419 247.289C196.116 244.513 198.327 242.088 200.945 240.141L216.164 228.836C216.164 228.836 227.357 220.831 231.212 220.245C235.066 219.659 243.398 225.708 254.004 228.286C264.602 230.865 272.094 236.589 275.524 247.632C278.512 257.241 276.698 254.276 286.609 265.012C298.759 278.191 316.975 268.356 305.529 291.2Z" fill="#FBB03B"/>
<path d="M294.507 351.715C294.453 351.715 294.408 351.706 294.354 351.697C281.256 348.614 263.537 336.02 254.14 328.782C240.085 317.964 228.215 306.678 223.747 301.125C214.602 289.73 199.51 276.136 199.356 276.001C199.076 275.748 199.058 275.325 199.302 275.045C199.555 274.766 199.979 274.748 200.259 274.991C200.412 275.126 215.586 288.802 224.803 300.277C229.208 305.767 240.988 316.954 254.961 327.709C271.038 340.086 285.138 348.136 294.661 350.381C295.022 350.471 295.248 350.831 295.166 351.192C295.094 351.507 294.814 351.715 294.507 351.715Z" fill="#CD7C16"/>
<path d="M202.75 279.453L201.631 279.282L200.593 279.111L198.544 278.759C197.181 278.516 195.836 278.263 194.482 278.011C191.783 277.497 189.102 276.938 186.412 276.352C181.041 275.162 175.67 273.837 170.254 272.242C167.546 271.439 164.82 270.574 162.067 269.591C159.313 268.609 156.524 267.518 153.663 266.193C152.227 265.535 150.774 264.805 149.285 263.975C147.795 263.146 146.261 262.208 144.672 261.064C143.878 260.487 143.056 259.856 142.226 259.134C141.386 258.404 140.538 257.602 139.671 256.628C138.805 255.655 137.929 254.537 137.108 253.176C136.286 251.815 135.519 250.21 134.995 248.344C134.734 247.424 134.535 246.442 134.418 245.441C134.354 244.936 134.318 244.432 134.309 243.927C134.3 243.683 134.3 243.386 134.309 243.106L134.318 242.674L134.345 242.268C134.382 241.709 134.445 241.204 134.517 240.7C134.598 240.213 134.688 239.726 134.797 239.284C135.013 238.392 135.266 237.58 135.546 236.859C135.681 236.49 135.826 236.156 135.97 235.814C136.115 235.498 136.268 235.165 136.422 234.867L136.647 234.425L136.873 234.002C137.026 233.713 137.18 233.47 137.333 233.199C137.956 232.181 138.579 231.297 139.193 230.495C140.429 228.899 141.639 227.601 142.831 226.411C144.022 225.23 145.205 224.167 146.387 223.166C148.743 221.174 151.072 219.425 153.41 217.775C155.748 216.126 158.077 214.584 160.424 213.106C163.051 211.447 165.686 209.87 168.322 208.346C168.44 208.86 168.421 209.347 168.187 209.806C167.176 211.844 169.369 221.543 175.86 221.643C178.965 221.688 180.409 223.482 181.619 225.6C178.685 227.556 175.805 229.557 173.025 231.604C171.039 233.064 169.107 234.552 167.275 236.066C165.443 237.571 163.7 239.104 162.157 240.618C161.85 240.925 161.552 241.222 161.263 241.52C162.049 241.88 162.906 242.232 163.818 242.575C165.768 243.314 167.907 243.999 170.137 244.621C172.366 245.243 174.677 245.811 177.024 246.334C181.736 247.379 186.601 248.245 191.521 248.975C193.976 249.345 196.45 249.678 198.923 249.985C200.16 250.138 201.396 250.282 202.624 250.408L204.456 250.598L205.359 250.688L205.801 250.724L206.009 250.742L206.18 250.751C213.42 262.785 211.425 272.107 202.75 279.453Z" fill="#AD624A"/>
<path d="M173.016 245.369C173.016 245.369 169.478 260.82 164.711 270.484C164.711 270.484 167.889 274.162 176.663 274C176.663 274 182.314 263.75 184.164 247.641C184.164 247.641 179.317 244.179 173.016 245.369Z" fill="#FBB03B"/>
<path d="M158.817 250.643C158.393 250.643 158.05 250.3 158.041 249.876C157.923 244.188 160.568 241.114 160.677 240.988C160.956 240.663 161.453 240.636 161.778 240.916C162.103 241.195 162.13 241.691 161.85 242.016C161.823 242.052 159.494 244.81 159.593 249.849C159.602 250.282 159.259 250.634 158.826 250.643C158.826 250.643 158.826 250.643 158.817 250.643Z" fill="#8A2A34"/>
<path d="M162.157 247.641C161.877 247.641 161.606 247.488 161.462 247.226L159.521 243.53C159.322 243.151 159.467 242.683 159.846 242.475C160.225 242.277 160.695 242.421 160.902 242.8L162.843 246.496C163.041 246.875 162.897 247.343 162.518 247.551C162.401 247.614 162.283 247.641 162.157 247.641Z" fill="#8A2A34"/>
<path d="M225.606 259.693L235.987 268.311C235.987 268.311 249.698 253.428 259.61 244.441L249.229 237.166C249.229 237.166 234.407 249.615 225.606 259.693Z" fill="#CD7C16"/>
<path d="M282.014 321.344C281.942 321.38 281.852 321.407 281.771 321.407C281.401 321.434 281.085 321.155 281.067 320.785C280.119 306.678 283.17 295.175 285.887 288.017C288.839 280.247 291.98 275.875 292.106 275.694C292.323 275.397 292.738 275.334 293.036 275.541C293.334 275.757 293.397 276.172 293.189 276.47C293.162 276.515 290.003 280.914 287.114 288.54C284.452 295.571 281.464 306.849 282.393 320.704C282.402 320.975 282.249 321.227 282.014 321.344Z" fill="#CD7C16"/>
<path d="M270.108 303.153C269.937 303.234 269.729 303.243 269.548 303.162C269.214 303.009 269.061 302.621 269.214 302.287C269.485 301.683 275.867 287.521 285.788 279.994C286.076 279.778 286.501 279.832 286.717 280.12C286.943 280.409 286.88 280.833 286.591 281.049C276.941 288.369 270.496 302.684 270.433 302.828C270.361 302.982 270.243 303.09 270.108 303.153Z" fill="#CD7C16"/>
<path d="M262.742 231.099C262.914 230.783 262.778 230.396 262.444 230.261C261.126 229.729 259.682 229.26 258.102 228.872C245.32 225.708 240.022 222.418 239.968 222.382C239.688 222.202 239.318 222.283 239.137 222.571C238.957 222.851 239.047 223.22 239.318 223.401C239.534 223.536 244.797 226.817 257.805 230.044C259.339 230.423 260.729 230.874 262.002 231.378C262.273 231.487 262.589 231.369 262.733 231.117C262.733 231.108 262.742 231.099 262.742 231.099Z" fill="#CD7C16"/>
<path d="M226.662 223.464C226.662 223.464 239.146 222.418 236.772 212.358C235.743 208.004 236.519 208.499 239.227 203.794C241.935 199.088 241.511 197.61 239.733 194.491C237.955 191.372 234.236 191.2 235.012 187.612C236.032 182.889 233.333 176.11 227.754 174.776C222.365 173.487 221.851 173.667 221.066 170.971C220.046 167.447 214.738 162.831 207.354 165.608C201.008 167.997 201.098 164.544 196.089 164.472C186.755 164.328 184.751 172.955 181.871 174.072C178.992 175.199 173.892 176.723 172.438 181.392C170.633 187.189 174.623 190.335 170.714 191.903C166.806 193.472 163.782 198.123 164.964 201.702C166.147 205.281 169.189 207.751 168.178 209.788C167.167 211.826 169.36 221.525 175.85 221.625C184.724 221.76 180.066 236.165 194.987 231.604C208.401 227.511 226.662 223.464 226.662 223.464Z" fill="#212019"/>
<path d="M223.837 199.241C223.837 199.241 226.048 194.31 229.099 197.718C232.15 201.134 233.008 209.581 227.52 209.743L223.837 199.241Z" fill="#8A2A34"/>
<path d="M221.616 221.931L225.191 232.595C225.191 232.595 221.752 243.972 201.207 237.508C203.418 232.929 201.532 225.97 198.995 222.157C198.995 222.157 200.394 222.238 202.804 222.869C203.274 222.995 203.806 223.004 204.348 223.067C209.186 223.626 216.29 223.932 221.616 221.931Z" fill="#AD624A"/>
<path d="M221.616 221.931L223.313 226.988C218.33 227.304 209.168 227.187 202.813 222.869C203.292 222.932 203.815 223.004 204.357 223.067C209.186 223.626 216.29 223.932 221.616 221.931Z" fill="#212019"/>
<path d="M229.939 215.648C223.494 227.809 199.798 222.373 199.031 222.192C199.022 222.192 199.013 222.183 199.013 222.183C198.58 221.39 198.165 220.597 197.767 219.804C194.419 213.115 192.433 206.57 191.349 200.125C189.102 193.643 191.241 186.386 196.784 182.348C202.525 178.156 209.096 179.31 212.869 179.373C218.556 179.472 223.792 185.26 226.608 194.851C230.065 206.633 231.537 212.628 229.939 215.648Z" fill="#AD624A"/>
<path d="M223.647 207.039C224.162 208.707 223.647 210.338 222.501 210.69C221.354 211.041 220.009 209.969 219.504 208.31C218.989 206.642 219.504 205.011 220.65 204.659C221.797 204.298 223.142 205.371 223.647 207.039Z" fill="white"/>
<path d="M217.699 188.911C217.699 188.911 216.155 190.173 217.744 191.299C219.332 192.426 221.535 188.55 225.769 189.758C225.778 189.758 224.36 185.458 217.699 188.911Z" fill="#212019"/>
<path d="M210.342 191.047C210.342 191.047 212.319 191.326 211.542 193.111C210.766 194.896 206.866 192.733 203.879 195.96C203.879 195.969 202.85 191.561 210.342 191.047Z" fill="#212019"/>
<g opacity="0.8">
<g opacity="0.8">
<g opacity="0.8">
<g opacity="0.8">
<g opacity="0.8">
<g opacity="0.8">
<g opacity="0.8">
<g opacity="0.8">
<path opacity="0.8" d="M212.698 204.181C212.96 205.074 211.335 206.318 209.069 206.976C206.803 207.634 204.763 207.436 204.501 206.552C204.24 205.66 205.865 204.416 208.13 203.758C210.396 203.1 212.436 203.298 212.698 204.181Z" fill="#8A2A34"/>
</g>
</g>
</g>
</g>
</g>
</g>
</g>
</g>
<g opacity="0.8">
<g opacity="0.8">
<g opacity="0.8">
<g opacity="0.8">
<g opacity="0.8">
<g opacity="0.8">
<g opacity="0.8">
<g opacity="0.8">
<path opacity="0.8" d="M229.84 200.918C229.533 201.044 229.208 201.152 228.865 201.252C226.608 201.901 224.559 201.711 224.306 200.828C224.044 199.935 225.669 198.691 227.935 198.033C228.242 197.943 228.54 197.871 228.838 197.817L229.84 200.918Z" fill="#8A2A34"/>
</g>
</g>
</g>
</g>
</g>
</g>
</g>
</g>
<path d="M212.021 199.07C212.373 200.287 212.111 201.441 211.425 201.639C210.739 201.837 209.899 201.008 209.547 199.782C209.195 198.565 209.457 197.411 210.143 197.213C210.829 197.024 211.669 197.853 212.021 199.07Z" fill="#212019"/>
<path d="M224.126 195.572C224.478 196.789 224.216 197.943 223.53 198.141C222.844 198.34 222.004 197.51 221.652 196.284C221.3 195.067 221.562 193.914 222.248 193.715C222.925 193.526 223.765 194.355 224.126 195.572Z" fill="#212019"/>
<path d="M220.019 201.81C220.605 201.639 220.975 201.432 221.002 201.414C221.129 201.342 221.219 201.215 221.246 201.071C221.273 200.927 221.246 200.783 221.165 200.656L217.762 195.87C217.59 195.635 217.265 195.581 217.031 195.744C216.796 195.915 216.742 196.239 216.904 196.474L219.937 200.738C219.441 200.909 218.637 201.08 217.744 200.891C217.464 200.828 217.184 201.008 217.121 201.297C217.058 201.576 217.238 201.855 217.527 201.919C218.511 202.126 219.396 201.991 220.019 201.81Z" fill="#212019"/>
<path d="M201.577 216.09C201.559 216.243 201.026 220.435 199.031 222.192C199.022 222.183 199.013 222.183 199.013 222.183C198.58 221.39 198.165 220.597 197.767 219.804C197.858 219.768 200.069 218.686 201.577 216.09Z" fill="#212019"/>
<path d="M196.874 208.256C196.874 208.256 190.086 203.109 187.991 209.302C186.267 214.404 195.059 223.86 199.808 218.379L196.874 208.256Z" fill="#AD624A"/>
<path d="M198.571 216.594C198.589 216.585 198.607 216.585 198.625 216.576C198.896 216.468 199.022 216.162 198.914 215.891C196.684 210.492 191.422 209.915 191.205 209.897C190.916 209.869 190.663 210.077 190.636 210.365C190.609 210.654 190.817 210.906 191.106 210.933C191.304 210.951 195.971 211.483 197.948 216.288C198.047 216.54 198.318 216.667 198.571 216.594Z" fill="#212019"/>
<path d="M192.992 214.9C193.101 214.864 193.209 214.801 193.272 214.692C193.606 214.215 194.68 212.962 195.61 212.925C195.899 212.916 196.125 212.673 196.116 212.385C196.107 212.096 195.863 211.871 195.574 211.88C193.949 211.934 192.559 213.872 192.406 214.088C192.243 214.323 192.297 214.647 192.541 214.819C192.685 214.927 192.848 214.945 192.992 214.9Z" fill="#212019"/>
<path d="M192.207 211.177C192.207 211.177 189.977 212.159 191.295 213.818C192.613 215.477 194.473 213.962 194.473 213.962L197.578 218.172C198.111 218.875 198.806 219.173 199.483 218.614C198.535 216.594 197.415 214.746 195.908 213.142C195.899 213.142 193.895 211.213 192.207 211.177Z" fill="white"/>
<path d="M188.452 193.887C188.452 193.887 196.91 198.051 199.293 195.726C201.676 193.4 195.52 189.19 195.52 189.19C195.52 189.19 206.993 191.687 210.297 188.856C213.6 186.026 205.431 183.376 205.431 183.376C205.431 183.376 214.954 187.91 219.143 186.269C223.34 184.629 217.455 180.446 217.455 180.446C217.455 180.446 223.602 186.918 226.012 185.512C228.422 184.106 221.761 174.19 212.066 172.964C202.38 171.747 180.635 178.76 188.452 193.887Z" fill="#212019"/>
<path d="M194.969 194.509C194.969 194.509 201.216 207.814 197.713 208.896C194.211 209.978 189.093 205.57 188.452 193.878L194.969 194.509Z" fill="#212019"/>
<path d="M235.301 345.035H175.164C173.973 345.035 173.016 344.07 173.016 342.889V342.015C173.016 340.825 173.982 339.869 175.164 339.869H235.301C236.492 339.869 237.449 340.834 237.449 342.015V342.889C237.458 344.079 236.492 345.035 235.301 345.035Z" fill="#212019"/>
<path d="M191.295 330.016V353.986C191.295 354.915 190.537 355.681 189.598 355.681H185.789C184.859 355.681 184.092 354.915 184.092 353.986V330.016C184.092 329.088 184.85 328.322 185.789 328.322H189.598C190.537 328.331 191.295 329.088 191.295 330.016Z" fill="#FBB03B"/>
<path d="M184.164 332.613V351.39C184.164 352.12 183.568 352.715 182.837 352.715H179.849C179.118 352.715 178.522 352.12 178.522 351.39V332.613C178.522 331.882 179.118 331.287 179.849 331.287H182.837C183.568 331.287 184.164 331.882 184.164 332.613Z" fill="#CD7C16"/>
<path d="M227.095 329.809V353.77C227.095 354.699 226.337 355.465 225.398 355.465H221.589C220.659 355.465 219.892 354.708 219.892 353.77V329.809C219.892 328.881 220.65 328.114 221.589 328.114H225.398C226.337 328.114 227.095 328.881 227.095 329.809Z" fill="#FBB03B"/>
<path d="M232.674 332.405V351.183C232.674 351.913 232.078 352.508 231.347 352.508H228.359C227.628 352.508 227.032 351.913 227.032 351.183V332.405C227.032 331.675 227.628 331.08 228.359 331.08H231.347C232.069 331.08 232.674 331.675 232.674 332.405Z" fill="#CD7C16"/>
</g>
<defs>
<clipPath id="clip0">
<rect width="609" height="376" fill="white"/>
</clipPath>
</defs>
</svg>
